# AST/ASF file generated using VICON BodyLanguage
# -----------------------------------------------
:version 1.10
:name VICON
:units
  mass 1.0
  length 0.45
  angle deg
:documentation
   .ast/.asf automatically generated from VICON data using
   VICON BodyBuilder and BodyLanguage model FoxedUp or BRILLIANT.MOD
:root
   order TX TY TZ RX RY RZ
   axis XYZ
   position 0 0 0  
   orientation 0 0 0 
:bonedata
  begin
     id 1 
     name lhipjoint
     direction 0.635376 -0.686425 0.353719 
     length 2.47244 
     axis 0 0 0  XYZ
  end
  begin
     id 2 
     name lfemur
     direction 0.34202 -0.939693 0  
     length 7.25268  
     axis 0 0 20  XYZ
    dof rx ry rz
    limits (-160.0 20.0)
           (-70.0 70.0)
           (-60.0 70.0)
  end
  begin
     id 3 
     name ltibia
     direction 0.34202 -0.939693 0   
     length 7.6767   
     axis 0 0 20   XYZ
    dof rx
    limits (-10.0 170.0)
  end
  begin
     id 4 
     name lfoot
     direction 0.0803374 -0.220725 0.972022   
     length 2.22945   
     axis -90 7.62852e-016 20   XYZ
    dof rx rz
    limits (-45.0 90.0)
           (-70.0 20.0)
  end
  begin
     id 5 
     name ltoes
     direction 1.53579e-011 -4.21994e-011 1   
     length 1.11848   
     axis -90 7.62852e-016 20   XYZ
    dof rx
    limits (-90.0 20.0)
  end
  begin
     id 6 
     name rhipjoint
     direction -0.664428 -0.664335 0.342336   
     length 2.55466  
     axis 0 0 0  XYZ 
  end
  begin
     id 7 
     name rfemur
     direction -0.34202 -0.939693 0   
     length 6.83172   
     axis 0 0 -20   XYZ
    dof rx ry rz
    limits (-160.0 20.0)
           (-70.0 70.0)
           (-70.0 60.0)
  end
  begin
     id 8 
     name rtibia
     direction -0.34202 -0.939693 0   
     length 7.62692   
     axis 0 0 -20   XYZ
    dof rx
    limits (-10.0 170.0)
 end
 begin
     id 9 
     name rfoot
     direction -0.0949276 -0.260811 0.960711   
     length 2.19684  
     axis -90 -7.62852e-016 -20   XYZ
    dof rx rz
    limits (-45.0 90.0)
           (-20.0 70.0)
  end
  begin
     id 10 
     name rtoes
     direction -1.53543e-011 -4.2183e-011 1   
     length 1.09848   
     axis -90 -7.62852e-016 -20   XYZ
    dof rx
    limits (-90.0 20.0)
  end
  begin
     id 11 
     name lowerback
     direction 0.0118782 0.999815 -0.0151555   
     length 2.15772   
     axis 0 0 0   XYZ
    dof rx ry rz
    limits (-20.0 45.0)
           (-30.0 30.0)
           (-30.0 30.0)
  end
  begin
     id 12 
     name upperback
     direction 0.00130825 0.999065 0.0432113   
     length 2.14863   
     axis 0 0 0   XYZ
    dof rx ry rz
    limits (-20.0 45.0)
           (-30.0 30.0)
           (-30.0 30.0)
  end
  begin
     id 13 
     name thorax
     direction -0.00347005 0.998773 0.0494011   
     length 2.14936   
     axis 0 0 0   XYZ
    dof rx ry rz
    limits (-20.0 45.0)
           (-30.0 30.0)
           (-30.0 30.0)
  end
  begin
     id 14 
     name lowerneck
     direction -0.0262159 0.99424 0.103921   
     length 1.69373   
     axis 0 0 0   XYZ
    dof rx ry rz
    limits (-20.0 45.0)
           (-30.0 30.0)
           (-30.0 30.0)
  end
  begin
     id 15 
     name upperneck
     direction 0.0353511 0.977394 -0.20845   
     length 1.70857   
     axis 0 0 0   XYZ
    dof rx ry rz
    limits (-20.0 45.0)
           (-30.0 30.0)
           (-30.0 30.0)
  end
  begin
     id 16
     name head
     direction 0.0139214 0.996594 -0.0812836  
     length 1.72777  
     axis 0 0 0   XYZ
    dof rx ry rz
    limits (-20.0 45.0)
           (-30.0 30.0)
           (-30.0 30.0)
  end
  begin
     id 17 
     name lclavicle
     direction 0.841247 0.537205 -0.0609508  
     length 3.55371  
     axis 0 0 0   XYZ
    dof ry rz
    limits (-20.0 10.0)
           (0.0 20.0)
  end
  begin
     id 18 
     name lhumerus
     direction 1 -4.48964e-011 1.60116e-018   
     length 4.91377   
     axis -180 -30 -90   XYZ
    dof rx ry rz
    limits (-60.0 90.0)
           (-90.0 90.0)
           (-90.0 90.0)
  end
  begin
     id 19
     name lradius
     direction 1 -4.48989e-011 -8.93847e-027   
     length 3.00291   
     axis -180 -30 -90   XYZ
    dof rx
    limits (-10.0 170.0)
  end
  begin
     id 20
     name lwrist
     direction 1 -4.48932e-011 -7.31504e-027   
     length 1.50145   
     axis 5.74121e-015 90 90   XYZ
    dof ry
    limits (-180.0 0.0)
 end
  begin
     id 21 
     name lhand
     direction 1 -4.48971e-011 -1.46301e-026   
     length 0.450922   
     axis 9.33524e-015 90 90   XYZ
    dof rx rz
    limits (-90.0 90.0)
           (-45.0 45.0)
  end
  begin
     id 22 
     name lfingers
     direction 1 -4.49039e-011 -2.92602e-026   
     length 0.363545   
     axis 1.86705e-014 90 90   XYZ
    dof rx
    limits (0.0 90.0)
  end
  begin
     id 23
     name lthumb
     direction 0.707107 -6.34941e-011 0.707107   
     length 0.52198   
     axis -90 45 2.85299e-015   XYZ
    dof rx rz
    limits (-45.0 45.0)
           (-45.0 45.0)
  end
  begin
     id 24 
     name rclavicle
     direction -0.825079 0.56158 -0.0622297   
     length 3.39909  
     axis 0 0 0   XYZ 
    dof ry rz
    limits (-10.0 20.0)
           (-20.0 0.0)
  end
  begin
     id 25 
     name rhumerus
     direction -1 -4.48965e-011 1.61691e-027  
     length 4.86725   
     axis -180 30 90   XYZ
    dof rx ry rz
    limits (-90.0 60.0)
           (-90.0 90.0)
           (-90.0 90.0)
  end
  begin
     id 26 
     name rradius
     direction -1 -4.48964e-011 -2.25776e-027   
     length 3.17144   
     axis -180 30 90   XYZ
    dof rx
    limits (-10.0 170.0)
  end
  begin
     id 27 
     name rwrist
     direction -1 -4.48961e-011 -7.31504e-027   
     length 1.58572   
     axis 5.74121e-015 -90 -90   XYZ
    dof ry
    limits (-180.0 0.0)
  end
  begin
     id 28
     name rhand
     direction -1 -4.49013e-011 -1.46301e-026   
     length 0.419368   
     axis 9.33524e-015 -90 -90   XYZ
    dof rx rz
    limits (-90.0 90.0)
           (-45.0 45.0)
  end
  begin
     id 29
     name rfingers
     direction -1 -4.489e-011 -2.92602e-026   
     length 0.338105   
     axis 1.86705e-014 -90 -90   XYZ
    dof rx
    limits (0.0 90.0)
  end
  begin
     id 30
     name rthumb
     direction -0.707107 -6.35022e-011 0.707107   
     length 0.485453   
     axis -90 -45 -2.85299e-015   XYZ
    dof rx rz
    limits (-45.0 45.0)
           (-45.0 45.0)
  end
:hierarchy
  begin
    root lhipjoint rhipjoint lowerback
    lhipjoint lfemur
    lfemur ltibia
    ltibia lfoot
    lfoot ltoes
    rhipjoint rfemur
    rfemur rtibia
    rtibia rfoot
    rfoot rtoes
    lowerback upperback
    upperback thorax
    thorax lowerneck lclavicle rclavicle
    lowerneck upperneck
    upperneck head
    lclavicle lhumerus
    lhumerus lradius
    lradius lwrist
    lwrist lhand lthumb
    lhand lfingers
    rclavicle rhumerus
    rhumerus rradius
    rradius rwrist
    rwrist rhand rthumb
    rhand rfingers
  end

#!OML:ASF H:\Swim 2\Project 1\Capture day 1\Session 1\male.ASF
:FULLY-SPECIFIED
:DEGREES
1494
root 0.604338 15.2014 10.1258 99.9482 -58.3472 -8.03123
lowerback -17.6758 6.45985 9.96604
upperback 3.24098 7.75665 -9.28654
thorax 16.4343 5.15658 -13.6382
lowerneck -12.8075 -2.3862 8.67906
upperneck -12.4977 -4.055 7.71518
head -1.87917 -2.72859 0.948445
rclavicle 3.97569e-014 -6.01324e-015
rhumerus 24.9144 -28.0975 -37.1462
rradius 58.4002
rwrist -28.979
rhand -24.466 -8.72486
rfingers 7.12502
rthumb 2.02733 -38.695
lclavicle 3.97569e-014 -6.01324e-015
lhumerus 426.947 8.07143 -699.547
lradius 45.3157
lwrist 412.157
lhand -41.827 -15.7953
lfingers 7.12502
lthumb -14.7285 13.6614
rfemur -66.0837 5.11944 24.7605
rtibia 68.1296
rfoot 20.1425 4.29136
rtoes 13.0494
lfemur -70.4675 12.6579 -30.3589
ltibia 80.3875
lfoot 26.1493 -8.16384
ltoes 13.4969
1495
root 0.579814 15.1919 10.1318 100.217 -58.3992 -8.39278
lowerback -17.6414 6.47703 9.87299
upperback 3.30477 7.7978 -9.23895
thorax 16.4807 5.16753 -13.5126
lowerneck -12.7489 -2.39697 8.57939
upperneck -12.871 -4.0286 7.71757
head -2.01075 -2.74071 0.976283
rclavicle -2.8625e-014 -1.02722e-013
rhumerus 24.1151 -26.2654 -38.217
rradius 61.0772
rwrist -29.7306
rhand -24.8055 -7.83531
rfingers 7.12502
rthumb 1.69944 -37.8083
lclavicle -2.8625e-014 -1.02722e-013
lhumerus 425.642 6.1806 -700.451
lradius 48.8766
lwrist 412.406
lhand -42.6352 -14.9174
lfingers 7.12502
lthumb -15.507 14.4807
rfemur -65.8278 5.32479 24.7386
rtibia 66.1944
rfoot 20.8537 4.30641
rtoes 13.4982
lfemur -70.3084 12.2546 -30.026
ltibia 78.7042
lfoot 26.2624 -8.19974
ltoes 13.9144
1496
root 0.554474 15.1782 10.1384 100.468 -58.4315 -8.71022
lowerback -17.6379 6.50973 9.79993
upperback 3.33795 7.85741 -9.21956
thorax 16.5237 5.18945 -13.423
lowerneck -12.6403 -2.39562 8.56859
upperneck -13.2499 -3.99151 7.67799
head -2.15657 -2.75144 0.978109
rclavicle 7.4743e-014 1.92821e-014
rhumerus 23.2054 -24.286 -39.2888
rradius 63.7886
rwrist -30.0911
rhand -24.9524 -6.79388
rfingers 7.12502
rthumb 1.55755 -36.7679
lclavicle 7.4743e-014 1.92821e-014
lhumerus 424.487 4.12102 -701.435
lradius 52.4001
lwrist 412.428
lhand -43.4308 -14.1815
lfingers 7.12502
lthumb -16.2732 15.1556
rfemur -65.5088 5.50312 24.7541
rtibia 64.1273
rfoot 21.5877 4.30181
rtoes 14.0691
lfemur -70.0895 11.8103 -29.6239
ltibia 76.8944
lfoot 26.3533 -8.26958
ltoes 14.2832
1497
root 0.527974 15.1606 10.1458 100.684 -58.4437 -8.97057
lowerback -17.6608 6.55575 9.74737
upperback 3.34061 7.93287 -9.2296
thorax 16.5604 5.22129 -13.3723
lowerneck -12.5002 -2.38758 8.63819
upperneck -13.6193 -3.95158 7.62187
head -2.30804 -2.76366 0.962342
rclavicle -1.27222e-014 3.09607e-014
rhumerus 22.26 -22.1545 -40.4059
rradius 66.3976
rwrist -30.0398
rhand -24.9586 -5.49487
rfingers 7.12502
rthumb 1.55152 -35.469
lclavicle -1.27222e-014 3.09607e-014
lhumerus 423.501 1.91539 -702.492
lradius 55.8413
lwrist 412.35
lhand -44.0751 -13.7178
lfingers 7.12502
lthumb -16.8935 15.5674
rfemur -65.13 5.64325 24.8175
rtibia 61.9491
rfoot 22.3515 4.26999
rtoes 14.6809
lfemur -69.8113 11.3257 -29.1539
ltibia 74.9748
lfoot 26.4404 -8.387
ltoes 14.6099
1498
root 0.500118 15.1395 10.1539 100.844 -58.4447 -9.15846
lowerback -17.706 6.6093 9.70456
upperback 3.31661 8.01904 -9.26953
thorax 16.5898 5.25984 -13.3571
lowerneck -12.3289 -2.36361 8.81801
upperneck -13.9763 -3.90254 7.5046
head -2.46595 -2.77468 0.909581
rclavicle -1.59028e-015 8.50798e-014
rhumerus 21.311 -19.8549 -41.5666
rradius 68.8257
rwrist -29.6082
rhand -24.8799 -3.93768
rfingers 7.12502
rthumb 1.62757 -33.9112
lclavicle -1.59028e-015 8.50798e-014
lhumerus 422.691 -0.414453 -703.623
lradius 59.16
lwrist 412.225
lhand -44.4904 -13.5133
lfingers 7.12502
lthumb -17.2932 15.7373
rfemur -64.6908 5.73487 24.9234
rtibia 59.6847
rfoot 23.1422 4.19378
rtoes 15.3017
lfemur -69.4705 10.7945 -28.6239
ltibia 72.9641
lfoot 26.5384 -8.5053
ltoes 14.9631
1499
root 0.470855 15.1153 10.1625 100.974 -58.4395 -9.29282
lowerback -17.7838 6.67696 9.66797
upperback 3.26013 8.12523 -9.34053
thorax 16.6138 5.30878 -13.3717
lowerneck -12.1217 -2.33502 9.09497
upperneck -14.3116 -3.85628 7.34297
head -2.62737 -2.78965 0.82665
rclavicle 1.90833e-014 5.31749e-015
rhumerus 20.4324 -17.3864 -42.7843
rradius 70.9708
rwrist -28.8829
rhand -24.8258 -2.31722
rfingers 7.12502
rthumb 1.67978 -32.2904
lclavicle 1.90833e-014 5.31749e-015
lhumerus 422.069 -2.8546 -704.832
lradius 62.3075
lwrist 412.102
lhand -44.6076 -13.532
lfingers 7.12502
lthumb -17.4061 15.7087
rfemur -64.2132 5.7891 25.0667
rtibia 57.3619
rfoot 23.9567 4.08386
rtoes 15.8965
lfemur -69.0911 10.2279 -28.04
ltibia 70.8875
lfoot 26.6666 -8.55927
ltoes 15.4098
1500
root 0.440319 15.0885 10.1711 101.058 -58.4354 -9.36939
lowerback -17.8904 6.76091 9.62329
upperback 3.17382 8.25666 -9.43341
thorax 16.6308 5.36812 -13.3945
lowerneck -11.8567 -2.32579 9.41822
upperneck -14.6276 -3.83096 7.19601
head -2.79452 -2.81698 0.740981
rclavicle 3.97569e-014 -5.71009e-014
rhumerus 19.5739 -14.7701 -44.0088
rradius 72.8071
rwrist -27.9954
rhand -24.7863 -0.590188
rfingers 7.12502
rthumb 1.71796 -30.563
lclavicle 3.97569e-014 -5.71009e-014
lhumerus 421.642 -5.40652 -706.124
lradius 65.2669
lwrist 411.974
lhand -44.4841 -13.6103
lfingers 7.12502
lthumb -17.2871 15.6408
rfemur -63.6985 5.79871 25.2412
rtibia 55.0167
rfoot 24.7779 3.94794
rtoes 16.4705
lfemur -68.67 9.63091 -27.4213
ltibia 68.7677
lfoot 26.8101 -8.58657
ltoes 15.8017
1501
root 0.408643 15.0597 10.1798 101.114 -58.4452 -9.4063
lowerback -18.028 6.86155 9.56086
upperback 3.0544 8.41599 -9.54954
thorax 16.6378 5.43778 -13.4197
lowerneck -11.545 -2.34189 9.77988
upperneck -14.8969 -3.83592 7.06344
head -2.95614 -2.85882 0.652829
rclavicle 3.02153e-014 3.73218e-014
rhumerus 18.802 -12.0426 -45.2803
rradius 74.2618
rwrist -27.0215
rhand -24.8521 1.00283
rfingers 7.12502
rthumb 1.65439 -28.9705
lclavicle 3.02153e-014 3.73218e-014
lhumerus 421.406 -8.06542 -707.529
lradius 68.0141
lwrist 411.856
lhand -44.2051 -13.721
lfingers 7.12502
lthumb -17.0186 15.5535
rfemur -63.164 5.77581 25.4267
rtibia 52.687
rfoot 25.5727 3.7999
rtoes 16.9781
lfemur -68.2223 9.01538 -26.7847
ltibia 66.6374
lfoot 26.9811 -8.49795
ltoes 16.3391
1502
root 0.376594 15.0291 10.1876 101.151 -58.4688 -9.41941
lowerback -18.1915 6.96989 9.47007
upperback 2.90983 8.59279 -9.68321
thorax 16.6346 5.51177 -13.4387
lowerneck -11.2414 -2.37244 10.1705
upperneck -15.0922 -3.86385 6.95453
head -3.09276 -2.90873 0.565212
rclavicle 4.77083e-015 3.88127e-014
rhumerus 18.071 -9.22829 -46.5761
rradius 75.4059
rwrist -26.1344
rhand -25.0945 2.34577
rfingers 7.12502
rthumb 1.42025 -27.6292
lclavicle 4.77083e-015 3.88127e-014
lhumerus 421.349 -10.805 -709.045
lradius 70.5114
lwrist 411.768
lhand -43.7225 -13.8711
lfingers 7.12502
lthumb -16.554 15.4428
rfemur -62.6248 5.72695 25.619
rtibia 50.4189
rfoot 26.3101 3.62111
rtoes 17.4438
lfemur -67.7639 8.40565 -26.1554
ltibia 64.5309
lfoot 27.1361 -8.41202
ltoes 16.6975
1503
root 0.344681 14.9975 10.1945 101.167 -58.5045 -9.41163
lowerback -18.3701 7.08067 9.35298
upperback 2.7455 8.77927 -9.82918
thorax 16.6178 5.58654 -13.4503
lowerneck -10.954 -2.41119 10.5738
upperneck -15.2164 -3.90706 6.85204
head -3.20331 -2.96142 0.475177
rclavicle -5.24792e-014 1.67526e-013
rhumerus 17.4451 -6.39926 -47.9516
rradius 76.1155
rwrist -25.294
rhand -25.3645 3.64274
rfingers 7.12502
rthumb 1.15957 -26.3339
lclavicle -5.24792e-014 1.67526e-013
lhumerus 421.458 -13.6025 -710.671
lradius 72.7401
lwrist 411.826
lhand -43.0006 -14.1607
lfingers 7.12502
lthumb -15.8589 15.2098
rfemur -62.0918 5.6628 25.8064
rtibia 48.2561
rfoot 26.9541 3.4046
rtoes 17.8216
lfemur -67.3064 7.81478 -25.5437
ltibia 62.4916
lfoot 27.2791 -8.27774
ltoes 17.0966
1504
root 0.313912 14.9653 10.1998 101.166 -58.5488 -9.39145
lowerback -18.5558 7.19051 9.2137
upperback 2.56351 8.96911 -9.98007
thorax 16.582 5.65884 -13.4512
lowerneck -10.6869 -2.46459 10.9506
upperneck -15.2597 -3.97094 6.77151
head -3.28156 -3.01687 0.393941
rclavicle -5.40694e-014 -5.09386e-015
rhumerus 16.8596 -3.59169 -49.3812
rradius 76.4347
rwrist -24.5406
rhand -25.5735 4.93998
rfingers 7.12502
rthumb 0.957673 -25.0376
lclavicle -5.40694e-014 -5.09386e-015
lhumerus 421.723 -16.4398 -712.434
lradius 74.6799
lwrist 412.02
lhand -42.1263 -14.5642
lfingers 7.12502
lthumb -15.0169 14.8712
rfemur -61.5852 5.59289 25.9842
rtibia 46.248
rfoot 27.4801 3.1784
rtoes 18.0675
lfemur -66.8667 7.26517 -24.9748
ltibia 60.5648
lfoot 27.3603 -8.21543
ltoes 17.178
1505
root 0.284837 14.9334 10.2031 101.162 -58.5907 -9.37843
lowerback -18.7386 7.30334 9.06246
upperback 2.36521 9.16528 -10.1319
thorax 16.5246 5.73092 -13.4423
lowerneck -10.4272 -2.54192 11.2776
upperneck -15.2434 -4.0604 6.74492
head -3.33552 -3.07895 0.336945
rclavicle -8.42847e-014 3.40916e-014
rhumerus 16.1991 -0.852932 -50.834
rradius 76.4388
rwrist -23.927
rhand -25.6669 6.3668
rfingers 7.12502
rthumb 0.867415 -23.6112
lclavicle -8.42847e-014 3.40916e-014
lhumerus 422.145 -19.3001 -714.358
lradius 76.3219
lwrist 412.353
lhand -41.1453 -15.0855
lfingers 7.12502
lthumb -14.0717 14.418
rfemur -61.1207 5.53154 26.1557
rtibia 44.4383
rfoot 27.8947 2.95066
rtoes 18.2342
lfemur -66.4607 6.78841 -24.4601
ltibia 58.8024
lfoot 27.376 -8.21058
ltoes 17.0065
1506
root 0.258292 14.9026 10.2045 101.119 -58.6317 -9.34881
lowerback -18.8924 7.40432 8.90646
upperback 2.16048 9.34647 -10.281
thorax 16.436 5.794 -13.4353
lowerneck -10.2137 -2.6244 11.5747
upperneck -15.1553 -4.16395 6.72648
head -3.35527 -3.1402 0.284781
rclavicle -2.06736e-014 -1.28601e-013
rhumerus 15.4565 1.80148 -52.3125
rradius 76.1266
rwrist -23.4511
rhand -25.5863 7.98864
rfingers 7.12502
rthumb 0.945278 -21.989
lclavicle -2.06736e-014 -1.28601e-013
lhumerus 422.705 -22.1671 -716.459
lradius 77.6652
lwrist 412.804
lhand -40.1728 -15.7011
lfingers 7.12502
lthumb -13.1343 13.8653
rfemur -60.7025 5.46804 26.3161
rtibia 42.8736
rfoot 28.2029 2.76271
rtoes 18.3151
lfemur -66.0833 6.3875 -24.0213
ltibia 57.253
lfoot 27.3314 -8.25232
ltoes 16.6273
